<?xml version="1.0" encoding="utf-8"?>
<svg viewBox="0 0 500 120" xmlns="http://www.w3.org/2000/svg">
  <g style="" transform="matrix(1.2016620635986328, 0, 0, 1.2016620635986328, -47.540225982666016, -12.953886985778809)">
    <g id="SvgjsG1008" featurekey="DUScZC-0" transform="matrix(0.740749, 0, 0, 0.740749, 45.954689, 26.683815)" fill="#3fbac2">
      <path xmlns="http://www.w3.org/2000/svg" d="M50,93.166C26.198,93.166,6.834,73.802,6.834,50S26.198,6.834,50,6.834S93.166,26.198,93.166,50S73.802,93.166,50,93.166z   M50,8.834C27.301,8.834,8.834,27.301,8.834,50S27.301,91.166,50,91.166S91.166,72.699,91.166,50S72.699,8.834,50,8.834z"/>
      <path xmlns="http://www.w3.org/2000/svg" d="M44.714,46.55l-0.107-0.742c18.198-2.623,28.245-13.025,31.72-17.375l0.586,0.468C73.382,33.32,63.177,43.889,44.714,46.55z  "/>
      <circle xmlns="http://www.w3.org/2000/svg" cx="44.793" cy="46.114" r="2.82"/>
      <circle xmlns="http://www.w3.org/2000/svg" cx="76.514" cy="28.767" r="2.82"/>
      <path xmlns="http://www.w3.org/2000/svg" d="M33.874,80.997c-3.484-4.387-9.012-13.539-6.895-25.552l0.738,0.131c-2.066,11.723,3.338,20.666,6.743,24.954L33.874,80.997  z"/>
      <circle xmlns="http://www.w3.org/2000/svg" cx="27.345" cy="55.653" r="2.82"/>
      <circle xmlns="http://www.w3.org/2000/svg" cx="34.08" cy="80.649" r="2.82"/>
      <path xmlns="http://www.w3.org/2000/svg" d="M78.553,58.284l-0.75-0.021c0.262-9.375-3.322-18.348-10.093-25.265c-7.05-7.204-16.891-11.292-27.026-11.233l-0.005-0.75  c10.321-0.04,20.376,4.11,27.567,11.458C75.16,39.537,78.82,48.704,78.553,58.284z"/>
      <circle xmlns="http://www.w3.org/2000/svg" cx="78.128" cy="58.131" r="2.82"/>
      <circle xmlns="http://www.w3.org/2000/svg" cx="40.819" cy="21.442" r="2.82"/>
      <path xmlns="http://www.w3.org/2000/svg" d="M55.399,79.061c-22.622-1.116-37.959-15.928-44.77-29.418c-5.007-9.918-5.79-19.582-2.043-25.222  c2.418-3.64,6.575-5.361,12.009-4.983l-0.052,0.748c-5.164-0.361-9.073,1.249-11.333,4.65c-3.598,5.416-2.798,14.791,2.088,24.469  c6.715,13.302,21.837,27.906,44.138,29.006L55.399,79.061z"/>
      <circle xmlns="http://www.w3.org/2000/svg" cx="55.277" cy="78.637" r="2.82"/>
      <path xmlns="http://www.w3.org/2000/svg" d="M23.574,83.267C13.12,81.553,6.04,74.011,5.536,64.052c-0.484-9.58,5.413-20.969,19.679-24.818l0.195,0.724  C11.548,43.698,5.816,54.734,6.286,64.014c0.386,7.634,5.162,16.505,17.41,18.513L23.574,83.267z"/>
      <circle xmlns="http://www.w3.org/2000/svg" cx="25.179" cy="39.64" r="2.82"/>
      <path xmlns="http://www.w3.org/2000/svg" d="M72.426,94.555c-0.325,0-0.654-0.015-0.988-0.046c-6.336-0.589-12.075-6.442-15.354-15.658l0.707-0.252  c3.178,8.934,8.679,14.602,14.716,15.163c3.25,0.309,6.127-1.001,7.521-3.397c1.443-2.479,1.026-5.686-1.145-8.796l0.615-0.43  c2.345,3.36,2.773,6.86,1.178,9.603C78.278,93.144,75.556,94.555,72.426,94.555z"/>
      <path xmlns="http://www.w3.org/2000/svg" d="M63.068,18.924l-0.713-0.234c1.704-5.167,4.714-8.496,8.26-9.131c2.183-0.394,4.329,0.351,5.595,1.938  c1.251,1.568,1.453,3.679,0.556,5.79l-0.689-0.293c0.786-1.85,0.621-3.683-0.452-5.029c-1.094-1.371-2.963-2.01-4.877-1.667  C67.481,10.882,64.683,14.027,63.068,18.924z"/>
      <circle xmlns="http://www.w3.org/2000/svg" cx="62.771" cy="18.677" r="2.82"/>
    </g>
    <g transform="matrix(1, 0, 0, 1, 0, -6.629591)">
      <g id="SvgjsG1009" featurekey="MdC7pD-0" transform="matrix(2.00639, 0, 0, 2.00639, 134.595535, 37.205624)" fill="#f5f5f5">
        <path d="M 5.04 19.16 L 8.54 19.16 C 9.34 19.16 9.7 18.96 10.48 15.72 L 11.2 15.72 C 11.2 15.72 11.04 17.88 11.06 18.96 L 11.06 20 L 0.7 20 L 0.7 19.22 L 2.6 19.22 L 2.6 7.56 L 0.7 7.56 L 0.7 6.78 L 6.92 6.78 L 6.92 7.56 L 5.04 7.56 L 5.04 19.16 L 5.04 19.16 Z M 12.2 20 L 12.2 19.22 L 13.74 19.22 L 13.74 11.74 L 12.02 11.74 L 12.02 10.96 L 15.96 10.96 L 15.96 19.22 L 17.5 19.22 L 17.5 20 L 12.2 20 L 12.2 20 Z M 13.38 7.72 C 13.38 6.98 13.98 6.38 14.74 6.38 C 15.48 6.38 16.08 6.98 16.08 7.72 C 16.08 8.46 15.48 9.06 14.74 9.06 C 13.98 9.06 13.38 8.46 13.38 7.72 L 13.38 7.72 Z M 18.36 20 L 18.36 19.22 L 19.9 19.22 L 19.9 11.74 L 18.36 11.74 L 18.36 10.96 L 19.9 10.96 L 19.9 9.24 C 19.9 7 21.16 5.38 23.86 5.38 C 25.52 5.38 26.84 6 26.84 7.06 C 26.84 7.8 26.18 8.44 24.86 8.4 C 24.9 8.08 24.92 7.76 24.92 7.48 C 24.92 6.62 24.62 6.08 23.74 6.08 C 22.54 6.08 22.14 6.98 22.14 8.7 L 22.14 10.96 L 24.56 10.96 L 24.56 11.74 L 22.14 11.74 L 22.14 19.22 L 23.84 19.22 L 23.84 20 L 18.36 20 L 18.36 20 Z M 25.62 15.5 C 25.62 12.02 27.38 10.68 29.94 10.68 C 32.4 10.68 33.72 11.88 33.72 14.42 L 33.72 15.46 L 27.94 15.46 L 27.94 15.78 C 27.94 18.6 28.68 19.46 30.16 19.46 C 31.52 19.46 32.54 18.6 32.84 17.32 L 33.7 17.48 C 33.36 18.88 32.22 20.28 29.98 20.28 C 27.3 20.28 25.62 18.88 25.62 15.5 L 25.62 15.5 Z M 27.96 14.62 C 29.147 14.62 31.52 14.62 31.52 14.62 L 31.52 13.98 C 31.52 12.36 31.16 11.38 29.9 11.38 C 28.58 11.38 28.02 12.54 27.96 14.62 L 27.96 14.62 Z M 37.98 20 L 37.98 19.22 L 39.88 19.22 L 39.88 7.62 L 37.62 7.62 C 36.78 7.62 36.56 7.78 35.76 10.88 L 35 10.88 C 35 10.88 35.12 8.86 35.12 7.88 L 35.12 6.78 L 47.28 6.78 L 47.02 10.88 L 46.34 10.88 L 45.84 9 C 45.5 7.72 45.32 7.62 44.78 7.62 L 42.3 7.62 L 42.3 19.22 L 44.2 19.22 L 44.2 20 L 37.98 20 L 37.98 20 Z M 48.46 15.5 C 48.46 12.02 50.22 10.68 52.78 10.68 C 55.24 10.68 56.56 11.88 56.56 14.42 L 56.56 15.46 L 50.78 15.46 L 50.78 15.78 C 50.78 18.6 51.52 19.46 53 19.46 C 54.36 19.46 55.38 18.6 55.68 17.32 L 56.54 17.48 C 56.2 18.88 55.06 20.28 52.82 20.28 C 50.14 20.28 48.46 18.88 48.46 15.5 Z M 50.8 14.62 L 54.36 14.62 L 54.36 13.98 C 54.36 12.36 54 11.38 52.74 11.38 C 51.42 11.38 50.86 12.54 50.8 14.62 L 50.8 14.62 Z M 58.14 15.5 C 58.14 12.08 59.9 10.68 62.48 10.68 C 64.32 10.68 65.94 11.38 65.94 12.74 C 65.94 13.64 65.26 14.32 63.92 14.28 C 63.98 13.88 64 13.54 64 13.24 C 64 11.84 63.46 11.38 62.48 11.38 C 60.92 11.38 60.46 12.6 60.46 15.44 C 60.46 18.32 61.06 19.46 62.6 19.46 C 63.88 19.46 64.78 18.68 65.04 17.32 L 65.92 17.46 C 65.64 18.94 64.62 20.28 62.4 20.28 C 59.94 20.28 58.14 18.92 58.14 15.5 L 58.14 15.5 Z M 66.84 20 L 66.84 19.22 L 68.36 19.22 L 68.36 6.42 L 66.66 6.42 L 66.66 5.64 L 70.6 5.64 L 70.6 11.32 C 70.6 12.2 70.5 13.04 70.5 13.04 L 70.54 13.04 C 70.7 12.64 71.48 10.68 73.86 10.68 C 75.7 10.68 76.7 11.56 76.7 13.52 L 76.7 19.22 L 78.22 19.22 L 78.22 20 L 73.16 20 L 73.16 19.22 L 74.46 19.22 L 74.46 13.58 C 74.46 12.26 74.18 11.72 73.26 11.72 C 71.34 11.72 70.6 14.7 70.6 16.4 L 70.6 19.22 L 71.9 19.22 L 71.9 20 L 66.84 20 L 66.84 20 Z M 83.6 20 L 83.6 19.22 L 85.5 19.22 L 85.5 7.56 L 83.6 7.56 L 83.6 6.78 L 94.46 6.78 L 93.66 10.86 L 92.96 10.86 L 92.84 8.44 C 92.8 7.7 92.7 7.62 92.24 7.62 L 87.94 7.62 L 87.94 13.02 L 90.76 13.02 L 90.76 11.3 L 91.7 11.3 L 91.7 15.8 L 90.76 15.8 L 90.76 13.88 L 87.94 13.88 L 87.94 19.16 L 91.76 19.16 C 92.56 19.16 92.92 18.96 93.7 15.72 L 94.42 15.72 C 94.42 15.72 94.26 17.88 94.28 18.96 L 94.28 20 L 83.6 20 Z M 100.22 20.2 L 96.7 11.74 L 95.5 11.74 L 95.5 10.96 L 100.56 10.96 L 100.56 11.74 L 99.08 11.74 L 101.34 17.26 L 103.58 11.74 L 102.16 11.74 L 102.16 10.96 L 105.76 10.96 L 105.76 11.74 L 104.54 11.74 L 101.08 20.2 L 100.22 20.2 Z M 106.58 15.5 C 106.58 12.02 108.34 10.68 110.9 10.68 C 113.36 10.68 114.68 11.88 114.68 14.42 L 114.68 15.46 L 108.9 15.46 L 108.9 15.78 C 108.9 18.6 109.64 19.46 111.12 19.46 C 112.48 19.46 113.5 18.6 113.8 17.32 L 114.66 17.48 C 114.32 18.88 113.18 20.28 110.94 20.28 C 108.26 20.28 106.58 18.88 106.58 15.5 L 106.58 15.5 Z M 108.92 14.62 L 112.48 14.62 L 112.48 13.98 C 112.48 12.36 112.12 11.38 110.86 11.38 C 109.54 11.38 108.98 12.54 108.92 14.62 Z M 116.02 20 L 116.02 19.22 L 117.56 19.22 L 117.56 11.74 L 115.84 11.74 L 115.84 10.96 L 119.64 10.96 L 119.64 13.2 L 119.68 13.2 C 119.86 12.66 120.54 10.68 122.98 10.68 C 124.82 10.68 125.88 11.56 125.88 13.52 L 125.88 19.22 L 127.4 19.22 L 127.4 20 L 122.34 20 L 122.34 19.22 L 123.66 19.22 L 123.66 13.5 C 123.66 12.18 123.32 11.7 122.44 11.7 C 120.54 11.7 119.78 14.7 119.78 16.4 L 119.78 19.22 L 121.08 19.22 L 121.08 20 L 116.02 20 Z M 129.26 17.54 L 129.26 11.74 L 127.82 11.74 L 127.82 10.96 L 129.28 10.96 C 129.76 10.22 130.22 9.18 130.4 8.06 L 131.5 8.06 L 131.5 10.96 L 133.96 10.96 L 133.96 11.74 L 131.5 11.74 L 131.5 17.56 C 131.5 18.56 131.72 19.1 132.4 19.1 C 132.86 19.1 133.32 18.86 133.7 17.86 L 134.48 18.18 C 134.06 19.14 133.48 20.2 131.76 20.2 C 130.16 20.2 129.26 19.26 129.26 17.54 L 129.26 17.54 Z M 135.42 20.18 C 135.42 20.18 135.54 19.14 135.54 18.28 L 135.54 16.64 L 136.46 16.64 L 136.46 17.3 C 136.46 18.36 137.5 19.5 139.18 19.5 C 140.14 19.5 140.86 19.12 140.86 18.18 C 140.86 15.68 135.54 17.2 135.54 13.56 C 135.54 11.54 137.26 10.68 139 10.68 C 140.16 10.68 140.88 11.06 141.42 11.58 L 141.66 10.78 L 142.48 10.78 C 142.48 10.78 142.22 12.16 142.22 12.68 L 142.22 13.86 L 141.32 13.86 L 141.32 13.42 C 141.32 12.54 140.58 11.48 139.04 11.48 C 138.1 11.48 137.42 11.84 137.42 12.72 C 137.42 15.18 142.78 13.74 142.78 17.28 C 142.78 19.06 141.42 20.28 139.2 20.28 C 137.7 20.28 136.9 19.72 136.48 19.28 L 136.28 20.18 L 135.42 20.18 Z"/>
      </g>
      <g id="SvgjsG1010" featurekey="Pp8M4q-0" transform="matrix(0.549946, 0, 0, 0.549946, 135.822754, 81.125916)" fill="#3fbac2" style="">
        <path d="M0.32227 6.348000000000001 l0 -1.4063 l7.9492 0 l0 1.4063 l-3.2422 0 l0 13.076 l-1.4746 0 l0 -13.076 l-3.2324 0 z M11.729723828125 4.941000000000001 l8.3008 0 l0 1.4258 l-6.8555 0 l0 4.5313 l4.1797 0 l0 1.4063 l-4.1797 0 l0 5.6836 l6.7969 0 l0 1.4355 l-8.2422 0 l0 -14.482 z M37.76597265625 7.715 l-1.1523 0.85938 q-0.9375 -1.23046875 -2.260742188 -1.860351563 t-2.9053 -0.62988 q-1.73828125 0 -3.212890625 0.830078125 t-2.29 2.2314 t-0.81543 3.1592 q0 2.646484375 1.81640625 4.262695313 t4.5801 1.6162 q3.046875 0 5.087890625 -2.3828125 l1.1523 0.86914 q-1.083984375 1.376953125 -2.705078125 2.12890625 t-3.6133 0.75195 q-3.80859375 0 -6.005859375 -2.529296875 q-1.8359375 -2.138671875 -1.8359375 -4.84375 q0 -3.173828125 2.231445313 -5.3515625 t5.5811 -2.1777 q2.03125 0 3.666992188 0.8056640625 t2.6807 2.2607 z M42.044665234375 19.42383 l0 -14.482 l0.3125 0 l9.6289 11.084 l0 -11.084 l1.4258 0 l0 14.482 l-0.33203 0 l-9.5313 -10.947 l0 10.947 l-1.5039 0 z M65.2197171875 4.686999999999999 q3.28125 0 5.493164063 2.197265625 t2.2119 5.4102 q0 3.173828125 -2.20703125 5.21484375 t-5.3809 2.041 q-3.22265625 0 -5.439453125 -2.202148438 t-2.2168 -4.9854 q0 -2.080078125 1.005859375 -3.8671875 t2.7539 -2.7979 t3.7793 -1.0107 z M65.2783171875 6.1129999999999995 q-1.6015625 0 -3.041992188 0.8349609375 t-2.2412 2.2559 t-0.80078 3.1592 q0 2.578125 1.782226563 4.1796875 t4.3018 1.6016 q1.6796875 0 3.115234375 -0.8203125 t2.2363 -2.2314 t0.80078 -2.7979 q0 -1.71875 -0.80078125 -3.115234375 t-2.2559 -2.2314 t-3.0957 -0.83496 z M77.193556640625 4.901999999999999 l1.4551 0 l0 13.086 l5.5664 0 l0 1.3965 l-7.0215 0 l0 -14.482 z M94.79247109375 4.686999999999999 q3.28125 0 5.493164063 2.197265625 t2.2119 5.4102 q0 3.173828125 -2.20703125 5.21484375 t-5.3809 2.041 q-3.22265625 0 -5.439453125 -2.202148438 t-2.2168 -4.9854 q0 -2.080078125 1.005859375 -3.8671875 t2.7539 -2.7979 t3.7793 -1.0107 z M94.85107109375 6.1129999999999995 q-1.6015625 0 -3.041992188 0.8349609375 t-2.2412 2.2559 t-0.80078 3.1592 q0 2.578125 1.782226563 4.1796875 t4.3018 1.6016 q1.6796875 0 3.115234375 -0.8203125 t2.2363 -2.2314 t0.80078 -2.7979 q0 -1.71875 -0.80078125 -3.115234375 t-2.2559 -2.2314 t-3.0957 -0.83496 z M120.741310546875 7.4510000000000005 l-1.123 1.0645 q-1.2109375 -1.19140625 -2.651367188 -1.806640625 t-2.8174 -0.61523 q-1.69921875 0 -3.237304688 0.83984375 t-2.3877 2.2656 t-0.84961 2.7148 q0 1.640625 0.87890625 3.110351563 t2.4268 2.3047 t3.3838 0.83496 q2.2265625 0 3.774414063 -1.259765625 t1.8408 -3.2617 l-4.6191 0 l0 -1.3965 l6.2305 0 q-0.01953125 3.359375 -1.987304688 5.33203125 t-5.2881 1.9727 q-4.00390625 0 -6.34765625 -2.734375 q-1.806640625 -2.109375 -1.806640625 -4.873046875 q0 -2.060546875 1.030273438 -3.671875 t2.8369 -2.6172 t4.082 -1.0059 q1.8359375 0 3.45703125 0.6689453125 t3.1738 2.1338 z M125.50784375 4.941000000000001 l1.4453 0 l0 14.482 l-1.4453 0 l0 -14.482 z M137.569598828125 4.901999999999999 l6.748 14.482 l-1.543 0 l-2.2754 -4.7754 l-6.25 0 l-2.2559 4.7754 l-1.6211 0 l6.8457 -14.482 l0.35156 0 z M137.393798828125 7.968999999999999 l-2.5 5.2539 l4.9609 0 z M153.607165234375 4.941000000000001 l8.3008 0 l0 1.4258 l-6.8555 0 l0 4.5313 l4.1797 0 l0 1.4063 l-4.1797 0 l0 5.6836 l6.7969 0 l0 1.4355 l-8.2422 0 l0 -14.482 z M172.701447265625 4.941000000000001 l1.4453 0 l0 14.482 l-1.4453 0 l0 -14.482 z M178.84520234375 19.42383 l0 -14.482 l0.3125 0 l9.6289 11.084 l0 -11.084 l1.4258 0 l0 14.482 l-0.33203 0 l-9.5313 -10.947 l0 10.947 l-1.5039 0 z M202.020254296875 4.686999999999999 q3.28125 0 5.493164063 2.197265625 t2.2119 5.4102 q0 3.173828125 -2.20703125 5.21484375 t-5.3809 2.041 q-3.22265625 0 -5.439453125 -2.202148438 t-2.2168 -4.9854 q0 -2.080078125 1.005859375 -3.8671875 t2.7539 -2.7979 t3.7793 -1.0107 z M202.078854296875 6.1129999999999995 q-1.6015625 0 -3.041992188 0.8349609375 t-2.2412 2.2559 t-0.80078 3.1592 q0 2.578125 1.782226563 4.1796875 t4.3018 1.6016 q1.6796875 0 3.115234375 -0.8203125 t2.2363 -2.2314 t0.80078 -2.7979 q0 -1.71875 -0.80078125 -3.115234375 t-2.2559 -2.2314 t-3.0957 -0.83496 z M212.90039375 4.98 l1.5723 0 l4.7949 11.191 l4.8828 -11.191 l1.582 0 l-6.3086 14.482 l-0.3125 0 z M232.872333203125 4.901999999999999 l6.748 14.482 l-1.543 0 l-2.2754 -4.7754 l-6.25 0 l-2.2559 4.7754 l-1.6211 0 l6.8457 -14.482 l0.35156 0 z M232.696533203125 7.968999999999999 l-2.5 5.2539 l4.9609 0 z M256.74058203125 7.401999999999999 l-1.1523 0.85938 q-0.9375 -1.23046875 -2.260742188 -1.860351563 t-2.9053 -0.62988 q-1.73828125 0 -3.212890625 0.830078125 t-2.29 2.2314 t-0.81543 3.1592 q0 2.646484375 1.81640625 4.418945313 t4.5801 1.7725 q3.046875 0 5.087890625 -2.3828125 l1.1523 0.86914 q-1.083984375 1.376953125 -2.705078125 2.12890625 t-3.6133 0.75195 q-3.80859375 0 -6.005859375 -2.529296875 q-1.8359375 -2.138671875 -1.8359375 -5.15625 q0 -3.173828125 2.231445313 -5.3515625 t5.5811 -2.1777 q2.03125 0 3.666992188 0.8056640625 t2.6807 2.2607 z M249.47508203125 19.18945 l0.85938 0 l-0.15625 1.1523 q0.21484375 -0.01953125 0.37109375 -0.01953125 q0.478515625 0 0.80078125 0.2978515625 t0.32227 0.74707 q0 0.654296875 -0.5908203125 1.103515625 t-1.6553 0.44922 q-0.87890625 0 -1.640625 -0.29296875 l0.20508 -0.67383 q0.634765625 0.1953125 1.19140625 0.1953125 q0.732421875 0 1.025390625 -0.1806640625 t0.29297 -0.46387 q0 -0.166015625 -0.1611328125 -0.29296875 t-0.44434 -0.12695 q-0.234375 0 -0.693359375 0.087890625 z M266.556415234375 4.707000000000001 l6.748 14.482 l-1.543 0 l-2.2754 -4.7754 l-6.25 0 l-2.2559 4.7754 l-1.6211 0 l6.8457 -14.482 l0.35156 0 z M266.380615234375 7.773 l-2.5 5.2539 l4.9609 0 z M269.251615234375 2.7540000000000013 l0.69336 0.95703 q-0.703125 0.5078125 -1.196289063 0.68359375 t-1.0303 0.17578 q-0.703125 0 -1.455078125 -0.361328125 q-0.64453125 -0.3125 -0.8203125 -0.361328125 q-0.234375 -0.068359375 -0.517578125 -0.068359375 q-0.341796875 0 -0.6494140625 0.1220703125 t-0.89355 0.55176 l-0.66406 -1.0059 q0.908203125 -0.947265625 2.216796875 -0.947265625 q0.634765625 0 1.513671875 0.390625 q0.830078125 0.380859375 1.30859375 0.380859375 q0.556640625 0 1.494140625 -0.517578125 z M283.9306546875 4.686999999999999 q3.28125 0 5.493164063 2.197265625 t2.2119 5.4102 q0 3.173828125 -2.20703125 5.21484375 t-5.3809 2.041 q-3.22265625 0 -5.439453125 -2.202148438 t-2.2168 -4.9854 q0 -2.080078125 1.005859375 -3.8671875 t2.7539 -2.7979 t3.7793 -1.0107 z M283.9892546875 6.1129999999999995 q-1.6015625 0 -3.041992188 0.8349609375 t-2.2412 2.2559 t-0.80078 3.1592 q0 2.578125 1.782226563 4.1796875 t4.3018 1.6016 q1.6796875 0 3.115234375 -0.8203125 t2.2363 -2.2314 t0.80078 -2.7979 q0 -1.71875 -0.80078125 -3.115234375 t-2.2559 -2.2314 t-3.0957 -0.83496 z M302.65382734375 4.901999999999999 l2.8809 0 q2.490234375 0 3.349609375 0.21484375 q1.25 0.3125 2.03125 1.259765625 t0.78125 2.3926 q0 1.435546875 -0.7666015625 2.377929688 t-2.1143 1.2646 q-0.986328125 0.234375 -3.681640625 0.234375 l-1.0352 0 l0 6.7383 l-1.4453 0 l0 -14.482 z M304.09912734375 6.308999999999999 l0 4.9219 l2.4609 0.029297 q1.474609375 0 2.163085938 -0.2685546875 t1.084 -0.87891 t0.39551 -1.3428 q0 -0.7421875 -0.3955078125 -1.34765625 t-1.04 -0.85938 t-2.1094 -0.25391 l-2.5586 0 z M320.399188671875 4.901999999999999 l6.748 14.482 l-1.543 0 l-2.2754 -4.7754 l-6.25 0 l-2.2559 4.7754 l-1.6211 0 l6.8457 -14.482 l0.35156 0 z M320.223388671875 7.968999999999999 l-2.5 5.2539 l4.9609 0 z M330.8496375 4.941000000000001 l2.8809 0 q2.412109375 0 3.271484375 0.1953125 q1.2890625 0.29296875 2.099609375 1.264648438 t0.81055 2.3877 q0 1.19140625 -0.556640625 2.080078125 t-1.5967 1.3525 t-1.8018 0.46387 l4.1504 6.7383 l-1.7773 0 l-4.1504 -6.7383 l-1.8848 0 l0 6.7383 l-1.4453 0 l0 -14.482 z M332.2949375 6.356999999999999 l0 4.9219 l2.4902 0.019531 q1.4453125 0 2.143554688 -0.2734375 t1.084 -0.87891 t0.38574 -1.3574 q0 -0.72265625 -0.3955078125 -1.318359375 t-1.0303 -0.85449 t-2.1289 -0.25879 l-2.5488 0 z M350.303973828125 4.901999999999999 l6.748 14.482 l-1.543 0 l-2.2754 -4.7754 l-6.25 0 l-2.2559 4.7754 l-1.6211 0 l6.8457 -14.482 l0.35156 0 z M350.128173828125 7.968999999999999 l-2.5 5.2539 l4.9609 0 z M373.245840234375 4.686999999999999 q3.28125 0 5.493164063 2.197265625 t2.2119 5.4102 q0 3.173828125 -2.20703125 5.21484375 t-5.3809 2.041 q-3.22265625 0 -5.439453125 -2.202148438 t-2.2168 -4.9854 q0 -2.080078125 1.005859375 -3.8671875 t2.7539 -2.7979 t3.7793 -1.0107 z M373.304440234375 6.1129999999999995 q-1.6015625 0 -3.041992188 0.8349609375 t-2.2412 2.2559 t-0.80078 3.1592 q0 2.578125 1.782226563 4.1796875 t4.3018 1.6016 q1.6796875 0 3.115234375 -0.8203125 t2.2363 -2.2314 t0.80078 -2.7979 q0 -1.71875 -0.80078125 -3.115234375 t-2.2559 -2.2314 t-3.0957 -0.83496 z M390.787352890625 16.4941 l1.2305 -0.74219 q1.298828125 2.392578125 2.998046875 2.392578125 q0.732421875 0 1.376953125 -0.341796875 t0.97656 -0.9082 t0.33203 -1.2109 q0 -0.72265625 -0.48828125 -1.42578125 q-0.68359375 -0.966796875 -2.490234375 -1.97265625 q-1.81640625 -1.3671875 -2.24609375 -1.982421875 q-0.771484375 -1.015625 -0.771484375 -2.216796875 q0 -0.947265625 0.44921875 -1.71875 t1.2744 -1.2256 t1.792 -0.4541 q1.015625 0 1.904296875 0.5126953125 t1.8848 1.8701 l-1.1816 0.88867 q-0.810546875 -1.07421875 -1.38671875 -1.420898438 t-1.2598 -0.34668 q-0.869140625 0 -1.42578125 0.5322265625 t-0.55664 1.3037 q0 0.46875 0.1953125 0.91796875 t0.72266 0.95703 q0.283203125 0.283203125 1.875 1.455078125 q1.875 1.38671875 2.573242188 2.294921875 t0.69824 1.9922 q0 1.58203125 -1.196289063 2.744140625 t-2.9053 1.1621 q-1.328125 0 -2.40234375 -0.703125 t-1.9727 -2.3535 z M403.40574921875 4.941000000000001 l8.3008 0 l0 1.4258 l-6.8555 0 l0 4.5313 l4.1797 0 l0 1.4063 l-4.1797 0 l0 5.6836 l6.7969 0 l0 1.4355 l-8.2422 0 l0 -14.482 z M415.994898046875 4.707000000000001 l1.4453 0 l0 8.7402 q0 1.552734375 0.068359375 1.943359375 q0.107421875 0.859375 0.498046875 1.430664063 t1.2061 0.95703 t1.6455 0.38574 q0.712890625 0.185546875 1.962890625 -0.126953125 t1.6895 -0.93262 t0.64453 -1.4014 q0.15625 -0.546875 0.15625 -2.255859375 l0 -8.7402 l1.4453 0 l0 8.7402 q0 1.943359375 -0.380859375 3.139648438 t-1.5186 2.0801 t-3.9209 0.88379 q-1.7578125 0 -3.002929688 -0.83984375 t-1.665 -2.207 q-0.2734375 -0.859375 -0.2734375 -3.056640625 l0 -8.7402 z M438.253161328125 4.941000000000001 l8.3008 0 l0 1.4258 l-6.8555 0 l0 4.5313 l4.1797 0 l0 1.4063 l-4.1797 0 l0 5.6836 l6.7969 0 l0 1.4355 l-8.2422 0 l0 -14.482 z M449.69971015625 4.98 l1.5723 0 l4.7949 11.191 l4.8828 -11.191 l1.582 0 l-6.3086 14.482 l-0.3125 0 z M466.331774609375 4.941000000000001 l8.3008 0 l0 1.4258 l-6.8555 0 l0 4.5313 l4.1797 0 l0 1.4063 l-4.1797 0 l0 5.6836 l6.7969 0 l0 1.4355 l-8.2422 0 l0 -14.482 z M478.8818234375 19.42383 l0 -14.482 l0.3125 0 l9.6289 11.084 l0 -11.084 l1.4258 0 l0 14.482 l-0.33203 0 l-9.5313 -10.947 l0 10.947 l-1.5039 0 z M493.717045390625 6.348000000000001 l0 -1.4063 l7.9492 0 l0 1.4063 l-3.2422 0 l0 13.076 l-1.4746 0 l0 -13.076 l-3.2324 0 z M511.66747109375 4.686999999999999 q3.28125 0 5.493164063 2.197265625 t2.2119 5.4102 q0 3.173828125 -2.20703125 5.21484375 t-5.3809 2.041 q-3.22265625 0 -5.439453125 -2.202148438 t-2.2168 -4.9854 q0 -2.080078125 1.005859375 -3.8671875 t2.7539 -2.7979 t3.7793 -1.0107 z M511.72607109375 6.1129999999999995 q-1.6015625 0 -3.041992188 0.8349609375 t-2.2412 2.2559 t-0.80078 3.1592 q0 2.578125 1.782226563 4.1796875 t4.3018 1.6016 q1.6796875 0 3.115234375 -0.8203125 t2.2363 -2.2314 t0.80078 -2.7979 q0 -1.71875 -0.80078125 -3.115234375 t-2.2559 -2.2314 t-3.0957 -0.83496 z"/>
      </g>
    </g>
  </g>
</svg>